<?xml version="1.0" encoding="utf-8"?>
<!-- Generator: Adobe Illustrator 23.0.5, SVG Export Plug-In . SVG Version: 6.00 Build 0)  -->
<svg version="1.1" id="Layer_2" xmlns="http://www.w3.org/2000/svg" xmlns:xlink="http://www.w3.org/1999/xlink" x="0px" y="0px"
	 viewBox="0 0 430.29 430.29" style="enable-background:new 0 0 430.29 430.29;" xml:space="preserve">
<style type="text/css">
	.st0{opacity:0;}
	.st1{fill:#AA759F;}
</style>
<g>
	<rect x="0" class="st0" width="430.29" height="430.29"/>
	<g>
		<path class="st1" d="M258.58,182.14c-5.35-1.92-10.86-0.85-16.43-1.15c-1.65,8.49-3.27,16.78-4.89,25.1
			c3.99,0,7.77,0.23,11.5-0.08c2.32-0.19,4.73-0.87,6.83-1.9c6.26-3.08,8.14-13.59,6.65-18.34
			C261.67,183.97,260.39,182.79,258.58,182.14z"/>
		<path class="st1" d="M360.23,181.53c-4.32-0.48-8.71-0.42-13.08-0.46c-0.45,0-1.18,0.9-1.31,1.49
			c-1.13,5.37-2.16,10.77-3.21,16.16c-0.47,2.45-0.92,4.9-1.5,7.95c5.22-0.41,10.11-0.54,14.92-1.26c3.77-0.56,6.9-2.8,8.26-6.42
			c1.19-3.16,2-6.59,2.22-9.96C366.84,184.42,364.79,182.04,360.23,181.53z"/>
		<path class="st1" d="M419.41,169.53c-0.95-0.42-7.45-2.98-7.42-3.6c0.46-9.28-1.13-89.22-191.74-83.45
			c0,0,25.63,69.37-9.07,109.49c-34.71,40.13-113.64,36.04-114.32-14.28c0,0,46.38,54.74,91.15,11.29
			c28.9-28.04,37.35-88.21-3.09-113.41c-11.95-7.45-37.17-10.1-58.12-10.78C16.73,61.23,3.63,131.45,0.22,187.89
			c-3.4,56.45,32.66,91.13,61.92,111.53c29.26,20.4,18.11,35.43,7.15,37.57c0,0-13.27-5.61-14.29,12.24
			c-1.02,17.85,48.49,23.46,54.61-23.97c3.72-28.8-23.01-45.48-43.13-60.26c-6.07-4.46-23.57-14.41-20.59-23.78
			c0.39-1.21,1.38-2.01,2.34-2.8c5.21-1.67,10.67-2.53,16.08-1.65c4.28,0.7,9.06,2.91,9.85,7.17c0.16,0.87,0.16,1.81,0.66,2.54
			c0.55,0.8,1.57,1.11,2.5,1.37c2.96,0.81,8.92,3.55,13.07,3.52c1.51,0.66,3.08,1.26,4.94,1.6c32.46,5.9,58.95,32.48,61.4,47.82
			c1.01,6.28-0.96,19.64-1.03,33.49c-0.07,13.85,1.76,28.19,1.44,38.02c-0.21,6.3,4.86,11.45,11.16,11.45h19.86
			c6.01,0,10.94-4.75,11.16-10.74l3-80.39c0,0,61.93,4.76,88.46-2.04c26.54-6.8,33.34,4.41,34.7,13.09
			c1.02,6.51,0.51,48.36,0.19,68.84c-0.1,6.23,4.93,11.25,11.17,11.25h18.63c6.3,0,11.35-5.1,11.16-11.39
			c-0.9-30.37-2.96-111.24,0.35-115.1c4.08-4.76,27.22-10.88,42.19-51.69c0,0,4.35-4.43,12.59,2.04
			C421.79,207.61,442.42,179.65,419.41,169.53z M53.3,186.89c-10.9,0-19.73-1.83-19.73-7.84c0-6.01,8.84-10.88,19.73-10.88
			c10.9,0,19.73,4.87,19.73,10.88C73.04,185.06,64.2,186.89,53.3,186.89z M260.04,214.21c-4.85,2.09-10.12,1.88-15.28,2.02
			c-2.39,0.06-4.78,0.09-7.17-0.02c-1.68-0.08-2.47,0.41-2.77,2.2c-0.77,4.63-1.77,9.22-2.69,13.9c-4.61,0-8.95,0-13.56,0
			c0.64-3.34,1.24-6.5,1.85-9.67c3.18-16.36,6.37-32.71,9.5-49.08c0.33-1.74,0.84-2.58,2.88-2.53c9.15,0.2,18.32-0.01,27.47,0.35
			c5.86,0.23,10.96,2.56,14.26,7.76c2.42,3.82,2.77,8.09,2.2,12.45C275.35,202.18,269.96,209.94,260.04,214.21z M320.52,214.73
			c-0.12,0.55-0.8,1.38-1.23,1.39c-4.1,0.11-8.2,0.06-12.69,0.06c0.98-5.04,1.92-9.7,2.8-14.38c0.93-4.94,1.97-9.87,2.64-14.84
			c0.5-3.73-0.99-5.36-4.71-5.55c-3.84-0.2-7.69-0.12-11.54-0.22c-1.31-0.04-1.67,0.65-1.88,1.77c-1.99,10.41-4.05,20.8-6.01,31.21
			c-0.28,1.51-0.82,2.14-2.42,2.1c-3.7-0.1-7.41-0.03-11.5-0.03c4-20.57,7.94-40.85,11.9-61.24c4.45,0,8.84,0,13.46,0
			c-1,5.26-1.99,10.48-3.03,15.94c1.07,0.05,1.97,0.1,2.87,0.14c5.75,0.28,11.55,0.15,17.23,0.93c7.37,1.02,10.58,5.28,9.65,12.64
			c-0.88,6.95-2.42,13.82-3.69,20.72C321.8,208.51,321.21,211.63,320.52,214.73z M380.39,193.84c-1.24,6.58-4.48,12.06-9.66,16.42
			c-5.11,4.29-11.1,5.69-17.54,5.83c-3.98,0.09-7.96,0.16-11.93,0.12c-1.58-0.02-2.19,0.56-2.44,2.11
			c-0.68,4.12-1.59,8.19-2.32,12.3c-0.24,1.35-0.73,1.86-2.2,1.81c-3.82-0.13-7.65-0.04-11.76-0.04c1.53-7.85,2.99-15.38,4.45-22.9
			c2.32-11.95,4.68-23.89,6.92-35.85c0.37-1.98,1.09-2.65,3.19-2.61c8.89,0.19,17.8-0.05,26.68,0.3c6.44,0.26,12.02,2.7,15.29,8.75
			C381.41,184.45,381.26,189.18,380.39,193.84z"/>
	</g>
</g>
</svg>
